# xmcd CD database file
#
# Track frame offsets:
#	150
#	17352
#	35190
#
# Disc length: 816 seconds
#
# Revision: 0
# Processed by: cddbd v1.4PL0 Copyright (c) Steve Scherf et al.
# Submitted via: CDex 1.50beta9
#
DISCID=1b032e03
DTITLE=Joanna - Dirty Country Girl
DYEAR=2000
DGENRE=Country
TTITLE0=Dirty Country Girl  (single edit)
TTITLE1=Dirty Country Girl  (popcoc radio mix)
TTITLE2=Dirty Country Girl  (dirty country mix)
EXTD=YEAR: 2000
EXTT0=
EXTT1=
EXTT2=
PLAYORDER=
